<?xml version="1.0" encoding="UTF-8"?>
<svg version="1.1" xmlns="http://www.w3.org/2000/svg" width="316" height="314">
<path d="M0 0 C12.597088 -0.06991512 25.19412883 -0.12302018 37.7913723 -0.15543652 C43.64256076 -0.171005 49.4936152 -0.19207969 55.34472656 -0.22631836 C61.00522784 -0.2592294 66.66560127 -0.27691906 72.32619095 -0.28463173 C74.47163527 -0.29011885 76.61707365 -0.3008313 78.76246262 -0.31719017 C105.14241823 -0.5100999 128.80509994 3.63429996 151 19 C151 19.66 151 20.32 151 21 C151.56074219 21.2371875 152.12148437 21.474375 152.69921875 21.71875 C166.7007739 29.51588088 176.54132943 47.85259462 180.90942383 62.82446289 C186.02424463 82.68547994 184.42068231 104.0642902 174.67578125 122.17578125 C161.64606228 144.13495798 142.01538941 159.17894339 117.41796875 165.9921875 C106.03480352 168.72414716 95.99304072 169 84 169 C84 154.48 84 139.96 84 125 C88.62 124.67 93.24 124.34 98 124 C110.0642412 121.86133906 120.59537747 117.90749607 128.46484375 108.21484375 C135.1326386 98.59489546 136.94260184 89.60329593 136 78 C133.61070284 67.59631753 128.20044838 58.86007255 119.5703125 52.5703125 C110.0252467 46.73882853 101.1282542 44.86281135 90.16088867 44.79467773 C89.17504791 44.78477814 88.18920715 44.77487854 87.17349243 44.76467896 C83.92167546 44.73314383 80.66984389 44.70833807 77.41796875 44.68359375 C75.16066615 44.66301733 72.90336734 44.64202068 70.64607239 44.62062073 C64.70971757 44.56547114 58.77332838 44.51603048 52.83691406 44.46777344 C46.7773127 44.41750647 40.71776114 44.36184753 34.65820312 44.30664062 C22.77217798 44.19914605 10.88610956 44.09768176 -1 44 C0.19359225 41.51690184 1.41481144 39.40370855 3 37.125 C7.48875311 30.11132327 7.78961568 23.12447945 7 15 C5.58871264 9.73026689 3.86574911 5.83251917 0 2 C0 1.34 0 0.68 0 0 Z " fill="#BFD6E4" transform="translate(103,34)"/>
<path d="M0 0 C2.64214799 0.07672299 4.41648282 0.43195566 6.34423828 2.30859375 C7.82075906 4.16240599 9.20019836 6.06062484 10.5625 8 C11.34077148 9.07326538 11.34077148 9.07326538 12.13476562 10.16821289 C13.77181271 12.43495044 15.38750226 14.71575024 17 17 C18.00882408 18.41557166 19.0179319 19.83094115 20.02734375 21.24609375 C22.52653704 24.76258162 25.00502258 28.29318764 27.47802734 31.828125 C29.56288681 34.80324688 31.65961762 37.76991061 33.75683594 40.73632812 C35.26826335 42.87490778 36.77689955 45.01543347 38.28515625 47.15625 C39.94995753 49.51776917 41.62455755 51.87078751 43.30859375 54.21875 C43.94925781 55.1159375 44.58992187 56.013125 45.25 56.9375 C46.06210937 58.06478516 46.06210937 58.06478516 46.890625 59.21484375 C48 61 48 61 48 63 C44.7578125 63.3046875 44.7578125 63.3046875 41 63 C38.8046875 61.0078125 38.8046875 61.0078125 36.875 58.125 C36.10834085 57.01674168 35.34139577 55.90868114 34.57421875 54.80078125 C34.16478027 54.19186035 33.7553418 53.58293945 33.33349609 52.95556641 C31.39119165 50.10718512 29.35110083 47.33292042 27.31884766 44.54833984 C20.43355142 35.11171264 13.73682568 25.54383638 7 16 C7 67.48 7 118.96 7 172 C31.38716873 159.48372771 31.38716873 159.48372771 55.61328125 146.6875 C58.24303358 145.37717358 60.20068405 144.61756923 63 144 C65 147 65 147 65 150 C55.01025854 155.57452239 45.0144917 161.09108968 34.74804688 166.14160156 C30.11675602 168.42433426 25.548759 170.80716895 21 173.25 C20.05979004 173.75213013 20.05979004 173.75213013 19.10058594 174.2644043 C16.55647167 175.6237058 14.01779956 176.99011444 11.49609375 178.390625 C7.39249272 180.60205326 4.63609694 181.3857748 0 181 C-2.94995117 179.87353516 -2.94995117 179.87353516 -6.04296875 178.2890625 C-7.78030273 177.40927734 -7.78030273 177.40927734 -9.55273438 176.51171875 C-10.76443152 175.88302177 -11.97602029 175.25411586 -13.1875 174.625 C-14.33669922 174.04105469 -15.48589844 173.45710937 -16.66992188 172.85546875 C-22.69528176 169.78164281 -28.68471245 166.6421723 -34.66523743 163.48216248 C-42.46350547 159.3619804 -50.28969334 155.30483061 -58.15625 151.31640625 C-59.08830765 150.8432196 -60.0203653 150.37003296 -60.98066711 149.88250732 C-64.80067824 147.94375857 -68.6210932 146.00588685 -72.44580078 144.07641602 C-75.28948786 142.64084401 -78.12939374 141.19802074 -80.96875 139.75390625 C-81.83423462 139.31953751 -82.69971924 138.88516876 -83.59143066 138.43763733 C-84.39077026 138.0296843 -85.19010986 137.62173126 -86.01367188 137.20141602 C-87.06355286 136.67041039 -87.06355286 136.67041039 -88.13464355 136.12867737 C-90.0723528 134.95622125 -91.47313745 133.66303523 -93 132 C-91.36105296 126.82707339 -88.18834714 122.8682245 -85 118.5625 C-83.81216922 116.93904405 -82.62467224 115.31534382 -81.4375 113.69140625 C-80.85097656 112.89234863 -80.26445313 112.09329102 -79.66015625 111.27001953 C-77.41383419 108.19850446 -75.2039301 105.10199726 -73 102 C-69.23318191 96.71104846 -65.43292379 91.44691474 -61.625 86.1875 C-57.37757055 80.31868647 -53.16756688 74.42578071 -49 68.5 C-41.42528676 57.73123658 -33.70514268 47.06775219 -25.9375 36.4375 C-22.09770415 31.16687496 -18.3431917 25.83731107 -14.58862305 20.50585938 C-9.75781864 13.64754721 -4.8851089 6.81969848 0 0 Z M-1 21 C0 24 0 24 0 24 Z M-2 24 C-2.67692507 25.73462049 -3.35384524 27.46924289 -4.03074646 29.20387268 C-4.6482341 30.78612696 -5.26580113 32.36835027 -5.88343811 33.95054626 C-7.64082987 38.45281402 -9.39674604 42.95564887 -11.15014648 47.45947266 C-14.57995219 56.26500235 -18.0189415 65.06634163 -21.50894165 73.84822083 C-23.00563517 77.61574395 -24.49561389 81.38590607 -25.98510742 85.15628052 C-26.7030933 86.9680641 -27.42444738 88.77851655 -28.14916992 90.58761597 C-29.16129564 93.11504498 -30.16191348 95.64674967 -31.16015625 98.1796875 C-31.61673363 99.30660255 -31.61673363 99.30660255 -32.08253479 100.45628357 C-33.80967797 104.64495471 -33.80967797 104.64495471 -33 109 C-30.74609409 110.39755928 -30.74609409 110.39755928 -27.93359375 111.59375 C-26.36834961 112.30337891 -26.36834961 112.30337891 -24.77148438 113.02734375 C-23.67126953 113.51332031 -22.57105469 113.99929687 -21.4375 114.5 C-19.8277832 115.22896484 -19.8277832 115.22896484 -18.18554688 115.97265625 C-12.5000417 118.52817419 -6.85190507 120.8055356 -1 123 C-1 90.33 -1 57.66 -1 24 C-1.33 24 -1.66 24 -2 24 Z M-11 26 C-11.4964502 26.73766602 -11.4964502 26.73766602 -12.00292969 27.49023438 C-17.81176044 36.10153613 -23.6443114 44.67083391 -29.9375 52.9375 C-35.04387954 59.64719294 -39.90159648 66.50783797 -44.71411133 73.43066406 C-49.14827407 79.80336197 -53.66506402 86.1104793 -58.22607422 92.39282227 C-62.55698654 98.36527934 -66.81842422 104.3845722 -71.04345703 110.43237305 C-73.07027156 113.32251287 -75.10039759 116.12252193 -77.33984375 118.85546875 C-79.20404805 120.81157626 -79.20404805 120.81157626 -79 123 C-70.95167842 120.50073836 -63.28381105 117.22469369 -55.5625 113.875 C-54.27162419 113.31868589 -52.98060946 112.76269398 -51.68945312 112.20703125 C-44.38800394 109.85827645 -44.38800394 109.85827645 -39.17236328 105.21728516 C-38.89118652 104.41597168 -38.61000977 103.6146582 -38.3203125 102.7890625 C-37.97782471 101.83515625 -37.63533691 100.88125 -37.2824707 99.8984375 C-36.90050537 98.81820312 -36.51854004 97.73796875 -36.125 96.625 C-32.53990048 86.66678313 -28.76258828 76.79758616 -24.85546875 66.9609375 C-24.1759314 65.24664047 -24.1759314 65.24664047 -23.48266602 63.49771118 C-21.62937259 58.82486579 -19.77492058 54.15259696 -17.90313721 49.48712158 C-16.56922747 46.16125252 -15.24663845 42.83106995 -13.92578125 39.5 C-13.51482712 38.48545746 -13.10387299 37.47091492 -12.6804657 36.42562866 C-12.31193985 35.4911087 -11.943414 34.55658875 -11.5637207 33.59375 C-11.23636429 32.77583984 -10.90900787 31.95792969 -10.57173157 31.11523438 C-9.74699522 28.83766126 -9.74699522 28.83766126 -11 26 Z M-46.76171875 116.17578125 C-47.54513138 116.5016069 -48.32854401 116.82743256 -49.13569641 117.16313171 C-50.79973733 117.85583166 -52.46339698 118.5494481 -54.12670898 119.24389648 C-56.65815045 120.3002526 -59.19128283 121.35247096 -61.72460938 122.40429688 C-63.34125076 123.07787323 -64.95779043 123.75169375 -66.57421875 124.42578125 C-67.32757004 124.73840408 -68.08092133 125.05102692 -68.85710144 125.37312317 C-72.98902186 127.10228856 -77.01641384 128.94391748 -81 131 C-78.29257897 134.25487749 -74.73874014 135.77472222 -71 137.5625 C-64.77463478 140.60359378 -58.61916462 143.75051688 -52.5 147 C-46.16427812 150.35625796 -39.79892019 153.63211733 -33.3684082 156.80273438 C-29.21148086 158.86331823 -25.09701368 160.99393088 -20.99609375 163.1640625 C-19.95356445 163.71465332 -18.91103516 164.26524414 -17.83691406 164.83251953 C-15.76445805 165.92979663 -13.69470852 167.03220341 -11.62792969 168.14013672 C-10.68208008 168.6404541 -9.73623047 169.14077148 -8.76171875 169.65625 C-7.492677 170.33397461 -7.492677 170.33397461 -6.19799805 171.02539062 C-3.94364908 172.20267347 -3.94364908 172.20267347 -1 172 C-0.67 158.47 -0.34 144.94 0 131 C-4.15306258 128.50816245 -8.27521776 126.4094915 -12.671875 124.42578125 C-13.75640961 123.9327375 -13.75640961 123.9327375 -14.862854 123.42973328 C-16.38170985 122.74004119 -17.90123352 122.0518181 -19.42138672 121.36499023 C-21.75790552 120.30892685 -24.09197635 119.24759225 -26.42578125 118.18554688 C-27.90350475 117.51531386 -29.38136453 116.84538121 -30.859375 116.17578125 C-31.91085724 115.69773796 -31.91085724 115.69773796 -32.98358154 115.21003723 C-38.99061139 112.50112904 -40.80678374 113.69001878 -46.76171875 116.17578125 Z " fill="#9EBBD1" transform="translate(147,90)"/>
<path d="M0 0 C1.76953125 2.421875 1.76953125 2.421875 3.8125 5.75 C4.62709497 7.05321725 5.44361954 8.35522969 6.26171875 9.65625 C6.70435059 10.36265625 7.14698242 11.0690625 7.60302734 11.796875 C10.04944325 15.65504646 12.58729718 19.45148712 15.125 23.25 C15.68904541 24.0965918 16.25309082 24.94318359 16.83422852 25.81542969 C20.83898629 31.81064585 24.8856611 37.77625607 28.9453125 43.734375 C30.52180419 46.05175927 32.09803399 48.36932152 33.67425537 50.68688965 C35.23123006 52.97244671 36.79353119 55.25430014 38.35595703 57.53613281 C39.3260896 58.96142301 40.29598923 60.38687178 41.265625 61.8125 C41.71398712 62.46377869 42.16234924 63.11505737 42.6242981 63.78607178 C44.8594293 67.08415081 46.70379183 70.22463639 48 74 C41.00804763 74.22875585 34.01706369 74.38603086 27.0222168 74.49438477 C24.64457137 74.53956375 22.26717489 74.60092281 19.89038086 74.67895508 C16.46666065 74.78851985 13.04625086 74.83925005 9.62109375 74.87890625 C8.0347538 74.9485836 8.0347538 74.9485836 6.41636658 75.01966858 C-0.79104021 75.02456553 -0.79104021 75.02456553 -4.06347656 72.25125122 C-5.91272792 69.92301997 -7.46410036 67.54461298 -9 65 C-10.00802439 63.53150101 -11.02079211 62.06624526 -12.03857422 60.60449219 C-13.04745822 59.08761706 -14.0527177 57.56832615 -15.0546875 56.046875 C-15.60053497 55.22479553 -16.14638245 54.40271606 -16.70877075 53.5557251 C-18.43419644 50.95601842 -20.154872 48.35321428 -21.875 45.75 C-24.14141635 42.32692092 -26.41021118 38.90542585 -28.6796875 35.484375 C-29.22268494 34.66408813 -29.76568237 33.84380127 -30.32513428 32.99865723 C-34.27922447 27.03982213 -38.34026283 21.16687805 -42.49267578 15.34472656 C-44 13 -44 13 -44 11 C-43.34104736 10.87471924 -42.68209473 10.74943848 -42.00317383 10.62036133 C-22.79038771 7.20245698 -22.79038771 7.20245698 -4.859375 -0.20703125 C-3 -1 -3 -1 0 0 Z " fill="#BAD0DD" transform="translate(245,198)"/>
<path d="M0 0 C4.5438818 4.2046529 8.58067529 8.66305809 9.37109375 14.953125 C9.52001238 22.34649717 9.05025696 27.39780239 4 33 C1.02722788 35.82775885 -1.05021735 37.13989934 -5 38 C-4.97905273 38.67466309 -4.95810547 39.34932617 -4.93652344 40.04443359 C-4.85245414 43.15446567 -4.80105556 46.26425759 -4.75 49.375 C-4.69972656 50.96634766 -4.69972656 50.96634766 -4.6484375 52.58984375 C-4.50719621 64.10100902 -7.7517685 71.44379507 -15.62109375 79.75390625 C-18.33828862 82.31940223 -21.21780934 84.4220888 -24.2734375 86.55859375 C-27.12409325 88.93843984 -28.40180674 91.67575802 -30 95 C-30.33 95.66 -30.66 96.32 -31 97 C-31.87198997 101.04506457 -32.37317387 104.86804585 -32 109 C-30.45173462 111.15484607 -28.99314802 112.30656758 -26.76171875 113.71875 C-24.5740432 115.30978676 -23.91184892 116.4576035 -23 119 C-22.33639561 124.54032503 -22.24426105 129.43254144 -24.6875 134.5 C-29.26731819 139.45115479 -33.1971815 142.38384823 -40 143 C-46.00680913 142.56047738 -49.84775619 140.24880762 -54 136 C-57.48718632 131.00169961 -57.97308524 125.91126549 -57 120 C-55.28210347 115.74414112 -53.57760552 112.71855901 -49.32421875 110.78125 C-48.55722656 110.5234375 -47.79023437 110.265625 -47 110 C-47.04640625 109.18917969 -47.0928125 108.37835938 -47.140625 107.54296875 C-47.50318086 96.42027302 -45.32786725 87.92108682 -38.19921875 79.24609375 C-34.70793267 75.68039305 -30.77397699 72.71092522 -26.76953125 69.75 C-20.37317848 63.3987555 -19.39043928 56.13835147 -19.25 47.4375 C-19.20552734 46.06754883 -19.20552734 46.06754883 -19.16015625 44.66992188 C-19.0903115 42.44653077 -19.03720255 40.22413532 -19 38 C-20.15822266 37.57074219 -20.15822266 37.57074219 -21.33984375 37.1328125 C-26.73569295 34.83502062 -29.87450799 30.42912757 -32.26953125 25.23828125 C-34.09411905 19.64743199 -33.80554199 14.12166236 -31.4375 8.75 C-28.48297242 3.59262677 -24.41295267 0.12946721 -19.0625 -2.375 C-12.29921329 -3.75526259 -6.00503736 -3.63178906 0 0 Z M-18.5 11.5 C-20.59158203 14.98597004 -20.8876276 18.10215706 -20 22 C-17.55871269 25.44652326 -16.17033126 26.78056289 -12 27.5625 C-8.23008205 26.85564038 -6.59581908 25.81831785 -4 23 C-2.65895038 19.14448235 -2.80167699 17.50052951 -4.3125 13.6875 C-5.72511938 10.92091219 -5.72511938 10.92091219 -8 10 C-13.54096927 9.47200376 -13.54096927 9.47200376 -18.5 11.5 Z " fill="#DAF0F9" transform="translate(95,37)"/>
<path d="M0 0 C4.63507421 3.25993809 8.28904064 6.46454326 10 12 C10.84529722 19.26575699 10.92201275 25.39891513 6.4296875 31.4140625 C3.24378292 34.94815338 0.63347266 36.9910197 -4 38 C-4.11501191 55.3788633 -4.11501191 55.3788633 4 70 C6.92927545 72.11840335 9.93052912 74.09141875 13 76 C12.31113213 79.38891322 11.01283514 82.18011613 9.4375 85.25 C8.98246094 86.14203125 8.52742188 87.0340625 8.05859375 87.953125 C7.70925781 88.62859375 7.35992187 89.3040625 7 90 C-4.33793223 84.94317577 -12.7426816 75.21869406 -17.18188477 63.84643555 C-18.61030525 58.87658941 -18.41966835 54.00420468 -18.25 48.875 C-18.23195313 47.823125 -18.21390625 46.77125 -18.1953125 45.6875 C-18.14870351 43.12400578 -18.0833027 40.56251906 -18 38 C-19.15628906 37.57654297 -19.15628906 37.57654297 -20.3359375 37.14453125 C-25.44797969 34.94830198 -28.46173389 30.82270561 -31 26 C-32.89340495 20.31978516 -32.92131907 14.25898331 -30.4375 8.75 C-27.59621674 3.77271655 -23.53348885 0.4667567 -18.625 -2.375 C-11.84485887 -3.98931932 -6.14985444 -3.4165858 0 0 Z M-17.5 11.5 C-19.59158203 14.98597004 -19.8876276 18.10215706 -19 22 C-16.55871269 25.44652326 -15.17033126 26.78056289 -11 27.5625 C-7.19529549 26.8491179 -5.58803981 25.88381579 -3 23 C-1.8340259 18.99196403 -1.56759499 16.94717289 -3.3125 13.125 C-4.82725163 10.9104069 -4.82725163 10.9104069 -7 10 C-12.54096927 9.47200376 -12.54096927 9.47200376 -17.5 11.5 Z " fill="#DAF1F9" transform="translate(38,37)"/>
<path d="M0 0 C4.43744539 -0.05793591 8.87479389 -0.09357467 13.3125 -0.125 C14.57513672 -0.14175781 15.83777344 -0.15851562 17.13867188 -0.17578125 C18.95141602 -0.18544922 18.95141602 -0.18544922 20.80078125 -0.1953125 C21.91622314 -0.20578613 23.03166504 -0.21625977 24.1809082 -0.22705078 C27 0 27 0 30 2 C27.17588235 2.94137255 25.47081968 3.11725382 22.55078125 3.09765625 C21.70322266 3.09443359 20.85566406 3.09121094 19.98242188 3.08789062 C19.10134766 3.07951172 18.22027344 3.07113281 17.3125 3.0625 C16.41982422 3.05798828 15.52714844 3.05347656 14.60742188 3.04882812 C12.40488013 3.03704983 10.20247401 3.02060164 8 3 C7.31292445 5.49064888 7 7.37886292 7 10 C7.66 10.33 8.32 10.66 9 11 C11.29684453 17.89053359 11.13487783 26.42734182 8.125 33.0625 C7.4217946 34.37775455 6.71344923 35.69027386 6 37 C5.01 39.475 5.01 39.475 4 42 C35.35 42 66.7 42 99 42 C99 41.34 99 40.68 99 40 C101.9375 40.8125 101.9375 40.8125 105 42 C105.33 42.99 105.66 43.98 106 45 C70.69 44.67 35.38 44.34 -1 44 C1 40 1 40 3 37.125 C7.48875311 30.11132327 7.78961568 23.12447945 7 15 C5.58871264 9.73026689 3.86574911 5.83251917 0 2 C0 1.34 0 0.68 0 0 Z " fill="#D4E4EE" transform="translate(103,34)"/>
<path d="M0 0 C2.9375 0.8125 2.9375 0.8125 6 2 C6.495 3.485 6.495 3.485 7 5 C-22.37 4.67 -51.74 4.34 -82 4 C-82 3.67 -82 3.34 -82 3 C-76.71677719 2.2599135 -71.64569444 1.87731902 -66.29882812 1.88647461 C-65.57589569 1.88632858 -64.85296326 1.88618256 -64.10812378 1.8860321 C-61.74913394 1.88672162 -59.39022583 1.89446837 -57.03125 1.90234375 C-55.38358605 1.90421135 -53.73592154 1.90563364 -52.08825684 1.90663147 C-47.77452024 1.9104297 -43.46081789 1.92023668 -39.14709473 1.93133545 C-34.7360887 1.94160779 -30.32507707 1.94614151 -25.9140625 1.95117188 C-17.27602604 1.96186162 -8.63801729 1.9789053 0 2 C0 1.34 0 0.68 0 0 Z " fill="#CFDDE7" transform="translate(202,74)"/>
<path d="M0 0 C0.33 1.32 0.66 2.64 1 4 C-0.6222454 5.70993434 -2.29413425 7.37347684 -4 9 C-4.7216436 10.64360967 -5.39858354 12.30869268 -6 14 C-4.97261719 14.50789062 -3.94523437 15.01578125 -2.88671875 15.5390625 C9.69389696 21.78138762 9.69389696 21.78138762 15.6875 25.125 C21.63398987 28.42457669 27.797597 31.21927243 34 34 C34 34.66 34 35.32 34 36 C36.475 35.505 36.475 35.505 39 35 C39.33 35.99 39.66 36.98 40 38 C42.44666934 39.43598618 42.44666934 39.43598618 45.375 40.625 C46.84066406 41.26308594 46.84066406 41.26308594 48.3359375 41.9140625 C50.19907964 42.67352513 52.09126379 43.3637546 54 44 C54 44.66 54 45.32 54 46 C54.66 46.33 55.32 46.66 56 47 C51.75658592 46.37231395 48.43733437 44.89881568 44.6171875 42.97265625 C44.00937943 42.66801956 43.40157135 42.36338287 42.77534485 42.04951477 C40.80542233 41.0599409 38.84013155 40.06154952 36.875 39.0625 C35.51749235 38.37745301 34.15982542 37.69272157 32.80200195 37.00830078 C23.16106918 32.1388325 13.52910453 27.23972618 4.03271484 22.09277344 C2.55278685 21.29717438 1.06191412 20.52183391 -0.43505859 19.75878906 C-1.64863037 19.12408691 -1.64863037 19.12408691 -2.88671875 18.4765625 C-3.62494873 18.09838379 -4.36317871 17.72020508 -5.1237793 17.33056641 C-7 16 -7 16 -9 12 C-6.03 8.04 -3.06 4.08 0 0 Z " fill="#A9C1D4" transform="translate(63,208)"/>
<path d="M0 0 C0.66 0 1.32 0 2 0 C0.61624869 3.83990988 -1.16309349 6.97052564 -3.5 10.3125 C-4.1084375 11.19550781 -4.716875 12.07851562 -5.34375 12.98828125 C-5.8903125 13.65214844 -6.436875 14.31601563 -7 15 C-7.66 15 -8.32 15 -9 15 C-9.38285156 16.07894531 -9.38285156 16.07894531 -9.7734375 17.1796875 C-11.08355524 20.19212383 -12.65701008 22.4983999 -14.625 25.125 C-15.3365625 26.0840625 -16.048125 27.043125 -16.78125 28.03125 C-17.5134375 29.0109375 -18.245625 29.990625 -19 31 C-27.70496796 41.82781322 -27.70496796 41.82781322 -34 54 C-35.33333333 55.33333333 -36.66666667 56.66666667 -38 58 C-39.23512079 60.13309192 -39.23512079 60.13309192 -40 62 C-40.66 62 -41.32 62 -42 62 C-42 62.66 -42 63.32 -42 64 C-42.66 64 -43.32 64 -44 64 C-42.3961797 59.15102285 -39.64655008 55.40739477 -36.6875 51.3125 C-36.1605957 50.57499512 -35.63369141 49.83749023 -35.09082031 49.07763672 C-33.39962117 46.71424322 -31.70052874 44.35668749 -30 42 C-28.86584021 40.4232096 -27.73172534 38.84638689 -26.59765625 37.26953125 C-21.39889657 30.05150597 -16.16862058 22.85719024 -10.9140625 15.6796875 C-9.44127748 13.61778847 -8.00423219 11.54429937 -6.5859375 9.4453125 C-5.97153809 8.54002808 -5.97153809 8.54002808 -5.34472656 7.61645508 C-4.54625733 6.43553251 -3.7536867 5.25059488 -2.96777344 4.0612793 C-2.02846494 2.67239627 -1.01984142 1.33087189 0 0 Z " fill="#ABC2D6" transform="translate(134,108)"/>
<path d="M0 0 C0.495 0.33 0.99 0.66 1.5 1 C-1.42420484 1.86006025 -3.84082327 2.03469351 -6.875 1.875 C-12.58771557 1.82817446 -15.89402297 3.64951932 -20.25 7.3125 C-24.22707537 12.06289558 -24.91843275 16.72985378 -24.74609375 22.76171875 C-24.18276637 27.88531535 -22.34009825 31.53966088 -18.4375 34.8125 C-17.468125 35.534375 -16.49875 36.25625 -15.5 37 C-14.84 37.66 -14.18 38.32 -13.5 39 C-16.85446138 38.71247474 -18.40853218 38.07362044 -21.0625 35.9375 C-25.86851863 30.1456314 -28.2421957 25.09392255 -27.87890625 17.453125 C-26.85217224 10.80581615 -23.51688247 6.27513323 -18.28515625 2.1875 C-12.91962572 -1.38169318 -6.0540697 -2.42162788 0 0 Z " fill="#E9F6FC" transform="translate(89.5,35)"/>
<path d="M0 0 C3.4726926 4.29672135 6.8453418 8.66407467 10.1875 13.0625 C10.73341797 13.76955078 11.27933594 14.47660156 11.84179688 15.20507812 C12.36193359 15.89150391 12.88207031 16.57792969 13.41796875 17.28515625 C13.89000732 17.90269775 14.3620459 18.52023926 14.84838867 19.15649414 C16.06490345 21.10389781 16.57028856 22.75663985 17 25 C13.78125 25.3359375 13.78125 25.3359375 10 25 C7.59375 22.7265625 7.59375 22.7265625 5.5 19.625 C5.12689697 19.08713867 4.75379395 18.54927734 4.36938477 17.99511719 C3.60372509 16.88729877 2.84791865 15.77260646 2.10205078 14.65136719 C0.43160072 12.14828251 -1.32181489 9.70454184 -3.0625 7.25 C-4.04379139 5.83480425 -5.02383422 4.41873612 -6 3 C-3 3 -3 3 -1.68139648 4.29760742 C-1.03279663 5.19249878 -1.03279663 5.19249878 -0.37109375 6.10546875 C0.10650391 6.75966797 0.58410156 7.41386719 1.07617188 8.08789062 C1.56666016 8.78076172 2.05714844 9.47363281 2.5625 10.1875 C3.05685547 10.86103516 3.55121094 11.53457031 4.06054688 12.22851562 C6.5604512 15.6959066 8.65380373 18.89768592 10 23 C11.32 23 12.64 23 14 23 C9.97371966 17.13802954 5.85970239 11.45705208 1.28515625 6.0078125 C0 4 0 4 0 0 Z " fill="#ADC4D9" transform="translate(178,128)"/>
<path d="M0 0 C-0.33 0.99 -0.66 1.98 -1 3 C-3.50799412 3.84807022 -5.86478486 4.49529635 -8.4375 5.0625 C-9.15873047 5.23168945 -9.87996094 5.40087891 -10.62304688 5.57519531 C-16.05678588 6.83529833 -21.51262461 7.99749873 -27 9 C-27 11.54930494 -26.1742215 12.55060113 -24.8125 14.6953125 C-24.36132812 15.41074219 -23.91015625 16.12617188 -23.4453125 16.86328125 C-22.96835938 17.60964844 -22.49140625 18.35601562 -22 19.125 C-21.28457031 20.25615234 -21.28457031 20.25615234 -20.5546875 21.41015625 C-19.37376716 23.27601039 -18.18873743 25.13912008 -17 27 C-17.99 27 -18.98 27 -20 27 C-21.44213867 25.37939453 -21.44213867 25.37939453 -22.91796875 23.1328125 C-23.44970703 22.32972656 -23.98144531 21.52664062 -24.52929688 20.69921875 C-25.35010742 19.42498047 -25.35010742 19.42498047 -26.1875 18.125 C-26.74630859 17.28324219 -27.30511719 16.44148438 -27.88085938 15.57421875 C-32 9.28737408 -32 9.28737408 -32 7 C-31.30438965 6.85900879 -30.6087793 6.71801758 -29.89208984 6.57275391 C-26.71893233 5.92733906 -23.5469703 5.27622343 -20.375 4.625 C-19.28058594 4.40328125 -18.18617188 4.1815625 -17.05859375 3.953125 C-15.99511719 3.73398438 -14.93164062 3.51484375 -13.8359375 3.2890625 C-12.86188965 3.09006348 -11.8878418 2.89106445 -10.88427734 2.68603516 C-7.91498757 2.02462885 -7.91498757 2.02462885 -4.76025391 0.91943359 C-2 0 -2 0 0 0 Z " fill="#CCDAE3" transform="translate(233,202)"/>
<path d="M0 0 C5.09221901 0.58600933 9.07283044 2.96632039 13.5 5.375 C15.18337191 6.27645605 16.8669749 7.17748069 18.55078125 8.078125 C19.4320166 8.55185547 20.31325195 9.02558594 21.22119141 9.51367188 C26.02602471 12.08367936 30.85793053 14.60188074 35.6875 17.125 C37.48314501 18.06496647 39.27872437 19.00505834 41.07421875 19.9453125 C42.38279796 20.63023611 43.69138569 21.31514345 45 22 C45 22.66 45 23.32 45 24 C41.02887538 22.44737985 37.13459535 20.75773545 33.25 19 C32.10015625 18.484375 30.9503125 17.96875 29.765625 17.4375 C27 16 27 16 26 14 C24.67263038 13.64365916 23.33771221 13.31530132 22 13 C20.29514057 12.20278295 18.60806683 11.36677977 16.9375 10.5 C14.27726641 9.12387917 11.84680767 7.94893589 9 7 C8.67 6.34 8.34 5.68 8 5 C6.5459375 4.814375 6.5459375 4.814375 5.0625 4.625 C2 4 2 4 0.625 1.9375 C0.41875 1.298125 0.2125 0.65875 0 0 Z " fill="#A5BDCF" transform="translate(98,239)"/>
<path d="M0 0 C3.0400283 3.71174298 5.84473283 7.54938398 8.5625 11.5 C9.14161133 12.33337891 9.14161133 12.33337891 9.73242188 13.18359375 C11.46522653 15.69276574 13.10952115 18.19331942 14.61328125 20.84765625 C15.84974043 23.24700315 15.84974043 23.24700315 18.625 23.9375 C19.800625 24.4634375 19.800625 24.4634375 21 25 C21.5625 27.6875 21.5625 27.6875 22 31 C23.18084503 33.45517362 24.56092528 35.67891174 26 38 C22.12013436 36.50289246 20.60251793 34.37798167 18.35546875 30.94140625 C17.67806641 29.91466797 17.00066406 28.88792969 16.30273438 27.83007812 C15.60470703 26.75177734 14.90667969 25.67347656 14.1875 24.5625 C13.50107422 23.51900391 12.81464844 22.47550781 12.10742188 21.40039062 C7.67308076 14.641901 3.3228771 7.83019674 -1 1 C-0.67 0.67 -0.34 0.34 0 0 Z " fill="#CAD7E0" transform="translate(218,233)"/>
<path d="M0 0 C-4.2039909 1.28510622 -8.18809744 0.98565357 -12.5390625 0.83984375 C-15.17977162 0.73997616 -15.17977162 0.73997616 -17 3 C-17.53496094 3.40476562 -18.06992187 3.80953125 -18.62109375 4.2265625 C-23.32568645 7.84859301 -25.78525392 11.13997493 -27 17 C-27.19964133 19.40023331 -27.15089447 21.58568856 -27 24 C-27.66 24 -28.32 24 -29 24 C-29.51030068 17.08259078 -29.19327048 11.71363756 -25 6 C-18.3155496 -1.12796843 -9.18603578 -5.24916331 0 0 Z " fill="#E8F6FC" transform="translate(35,36)"/>
<path d="M0 0 C0.33 0.66 0.66 1.32 1 2 C0.34 2 -0.32 2 -1 2 C-1 2.66 -1 3.32 -1 4 C-2.64453125 5.5859375 -2.64453125 5.5859375 -4.8125 7.375 C-7.06250857 9.23566282 -8.90350285 10.86872703 -10.63671875 13.2265625 C-11.08660156 13.81179687 -11.53648438 14.39703125 -12 15 C-12.66 15 -13.32 15 -14 15 C-14.12375 15.66 -14.2475 16.32 -14.375 17 C-14.83462434 19.20619684 -15.39095943 21.39279297 -16 23.5625 C-17.38664094 28.95384275 -17.64925334 34.46189482 -18 40 C-18.33 40 -18.66 40 -19 40 C-20.64939415 28.72316394 -19.57579082 20.58302603 -12.8125 11.25 C-9.10176176 6.77291364 -4.73506343 3.33923974 0 0 Z " fill="#E6F5FA" transform="translate(68,107)"/>
<path d="M0 0 C0.99 0 1.98 0 3 0 C3.93394941 1.31444731 4.85124926 2.64324296 5.69140625 4.01953125 C7.92391769 7.39828737 10.59794963 10.43302286 13.1953125 13.53515625 C14.97513179 15.96603498 16.01948257 18.16458618 17 21 C15.68 21 14.36 21 13 21 C11.25 18.6875 11.25 18.6875 10.27734375 17.05078125 C7.99919258 13.3931991 5.30172859 10.02306904 2.70703125 6.5859375 C1.17559552 4.26600511 0.42611671 2.7093391 0 0 Z " fill="#95B3CC" transform="translate(175,130)"/>
<path d="M0 0 C0.33 0 0.66 0 1 0 C1.28810045 3.62299902 1.52329269 7.24768304 1.75 10.875 C1.83121094 11.88820313 1.91242188 12.90140625 1.99609375 13.9453125 C2.50040018 22.68662392 0.90505206 29.10415204 -4.359375 36.1640625 C-5.54273437 37.38222656 -5.54273437 37.38222656 -6.75 38.625 C-7.54921875 39.46289062 -8.3484375 40.30078125 -9.171875 41.1640625 C-10.07679687 42.07285156 -10.07679687 42.07285156 -11 43 C-11.66 42.34 -12.32 41.68 -13 41 C-12.34 41 -11.68 41 -11 41 C-11 40.34 -11 39.68 -11 39 C-10.34 39 -9.68 39 -9 39 C-8.72285156 38.42378906 -8.44570312 37.84757812 -8.16015625 37.25390625 C-6.66252211 34.34436114 -4.8969858 31.64786232 -3.12109375 28.90234375 C-1.07072753 25.42315089 -0.83005014 22.41135383 -0.68359375 18.45703125 C-0.64169922 17.38388672 -0.59980469 16.31074219 -0.55664062 15.20507812 C-0.51732422 14.08552734 -0.47800781 12.96597656 -0.4375 11.8125 C-0.39431641 10.68134766 -0.35113281 9.55019531 -0.30664062 8.38476562 C-0.20050901 5.58996646 -0.09845615 2.79507838 0 0 Z " fill="#E7F4FA" transform="translate(88,76)"/>
<path d="M0 0 C1.9375 0.75 1.9375 0.75 4 2 C4.75 4.125 4.75 4.125 5 6 C6.65 6.33 8.3 6.66 10 7 C10 7.99 10 8.98 10 10 C10.85759736 11.86263287 10.85759736 11.86263287 12 13.6875 C12.99 15.3271875 12.99 15.3271875 14 17 C13.01 17.33 12.02 17.66 11 18 C11 17.34 11 16.68 11 16 C10.34 16 9.68 16 9 16 C7.08984375 13.76953125 7.08984375 13.76953125 4.9375 10.8125 C4.22464844 9.84957031 3.51179687 8.88664062 2.77734375 7.89453125 C1.07540923 5.12280932 0.37977425 3.19594634 0 0 Z " fill="#97B5CF" transform="translate(154,100)"/>
<path d="M0 0 C0.99 0.33 1.98 0.66 3 1 C4.3318992 8.02274124 4.3318992 8.02274124 2.875 12.3125 C0.77695441 15.31969868 -0.62558001 16.5874521 -4 18 C-9.50856179 18.8382594 -12.4966137 16.88216723 -17 14 C-16.01 13.01 -15.02 12.02 -14 11 C-13.46375 11.66 -12.9275 12.32 -12.375 13 C-10.12696291 15.2237625 -10.12696291 15.2237625 -7.0625 15.5625 C-3.86617799 15.17429073 -3.86617799 15.17429073 -1.0625 13.125 C1.90053008 8.63556049 1.00174492 5.10790729 0 0 Z " fill="#E6F5FC" transform="translate(34,48)"/>
<path d="M0 0 C2.60793255 -0.11272606 4.91985508 -0.04997456 7.5 0.1875 C8.21671875 0.24284912 8.9334375 0.29819824 9.671875 0.35522461 C15.20414311 0.82350225 20.60647344 1.66458357 26 3 C25.67 3.66 25.34 4.32 25 5 C22.67843403 5.40729228 20.3431213 5.74438677 18 6 C18 5.34 18 4.68 18 4 C15.79187393 3.83060951 13.58348776 3.66460778 11.375 3.5 C9.53035156 3.36078125 9.53035156 3.36078125 7.6484375 3.21875 C4.41962143 3.02515931 1.23321325 2.96020661 -2 3 C-1.34 2.01 -0.68 1.02 0 0 Z " fill="#CEDFE9" transform="translate(194,34)"/>
<path d="M0 0 C2.7000835 0.07297523 4.43740716 0.41868797 6.35009766 2.39501953 C7.73968169 4.24523916 9.03814612 6.1311459 10.3125 8.0625 C10.9940918 9.05733398 10.9940918 9.05733398 11.68945312 10.07226562 C12.80602967 11.70599341 13.90479181 13.35187117 15 15 C14.67 15.66 14.34 16.32 14 17 C12.5 15.625 12.5 15.625 11 14 C11 13.34 11 12.68 11 12 C10.01 11.67 9.02 11.34 8 11 C6.33021181 8.04575935 5.0728503 5.2185509 4 2 C0.73539027 3.80412643 -0.88929795 4.83394693 -3 8 C-3.66 7.67 -4.32 7.34 -5 7 C-3.35 4.69 -1.7 2.38 0 0 Z " fill="#ACC5D7" transform="translate(147,90)"/>
<path d="M0 0 C0.66 0.99 1.32 1.98 2 3 C0.54927753 5.00593724 -0.90991029 7.00460174 -2.375 9 C-2.7875 9.57234375 -3.2 10.1446875 -3.625 10.734375 C-4.70171719 12.19315312 -5.84666578 13.60100976 -7 15 C-7.66 15 -8.32 15 -9 15 C-8.46512323 10.81013196 -7.1610304 8.49994696 -4.5 5.25 C-3.55640625 4.08210937 -3.55640625 4.08210937 -2.59375 2.890625 C-1.75936615 1.9008167 -0.9154007 0.9154007 0 0 Z " fill="#96B7CE" transform="translate(109,147)"/>
<path d="M0 0 C5.80205656 5.64524422 5.80205656 5.64524422 8 9 C8 9.66 8 10.32 8 11 C8.66 11 9.32 11 10 11 C10 11.66 10 12.32 10 13 C10.66 13.33 11.32 13.66 12 14 C13.09218365 15.65525242 14.12711738 17.34874507 15.125 19.0625 C15.66382813 19.98160156 16.20265625 20.90070313 16.7578125 21.84765625 C17.16773438 22.55792969 17.57765625 23.26820313 18 24 C17.34 24.33 16.68 24.66 16 25 C14.08200091 22.29260806 12.1658454 19.58391629 10.25 16.875 C9.71117187 16.11445312 9.17234375 15.35390625 8.6171875 14.5703125 C7.07199706 12.38443334 5.53391303 10.19380448 4 8 C3.57654297 7.39833008 3.15308594 6.79666016 2.71679688 6.17675781 C0 2.23572531 0 2.23572531 0 0 Z " fill="#ABC2D4" transform="translate(155,105)"/>
<path d="M0 0 C0 0.66 0 1.32 0 2 C-3.40853344 3.53955367 -6.82793443 5.05329284 -10.25 6.5625 C-11.21808594 7.00013672 -12.18617187 7.43777344 -13.18359375 7.88867188 C-14.11816406 8.29794922 -15.05273438 8.70722656 -16.015625 9.12890625 C-17.30388184 9.70233765 -17.30388184 9.70233765 -18.61816406 10.28735352 C-21.2268864 11.06788452 -22.47671776 10.92196851 -25 10 C-24.360625 9.87625 -23.72125 9.7525 -23.0625 9.625 C-22.381875 9.41875 -21.70125 9.2125 -21 9 C-20.67 8.34 -20.34 7.68 -20 7 C-18.29296875 6.18359375 -18.29296875 6.18359375 -16.1875 5.4375 C-15.50042969 5.18871094 -14.81335938 4.93992188 -14.10546875 4.68359375 C-12 4 -12 4 -9.93359375 3.5078125 C-7.73480765 3.00109513 -7.73480765 3.00109513 -4.875 1.4375 C-2 0 -2 0 0 0 Z " fill="#ABC0D2" transform="translate(93,208)"/>
<path d="M0 0 C0.33 1.65 0.66 3.3 1 5 C-0.32 5.33 -1.64 5.66 -3 6 C-2.34 4.35 -1.68 2.7 -1 1 C-8.92 4.96 -8.92 4.96 -17 9 C-17 8.01 -17 7.02 -17 6 C-14.73495035 4.80015203 -12.46410112 3.61505231 -10.1875 2.4375 C-9.54490234 2.09525391 -8.90230469 1.75300781 -8.24023438 1.40039062 C-3.33984375 -1.11328125 -3.33984375 -1.11328125 0 0 Z " fill="#A8BDCD" transform="translate(211,235)"/>
<path d="M0 0 C0.66 0.33 1.32 0.66 2 1 C0.06145806 7.21214575 -2.2954058 13.08638331 -5 19 C-6.01197442 21.32839878 -7.00590896 23.66388606 -8 26 C-9.24452234 22.26643298 -8.57603411 21.2638654 -7.12890625 17.67578125 C-6.71962891 16.64775391 -6.31035156 15.61972656 -5.88867188 14.56054688 C-5.45103516 13.48869141 -5.01339844 12.41683594 -4.5625 11.3125 C-4.12873047 10.22904297 -3.69496094 9.14558594 -3.24804688 8.02929688 C-2.17371584 5.34937221 -1.09075147 2.67327405 0 0 Z " fill="#ABC3D7" transform="translate(135,122)"/>
<path d="M0 0 C7.66409929 0.95942333 15.16776581 4.33697687 20.1875 10.375 C20.785625 11.24125 21.38375 12.1075 22 13 C18.30590132 13 17.69221715 12.15725924 14.9375 9.8125 C10.28935078 6.05116872 5.42918125 3.45956645 0 1 C0 0.67 0 0.34 0 0 Z " fill="#D0DEE8" transform="translate(210,79)"/>
<path d="M0 0 C-2.31 1.32 -4.62 2.64 -7 4 C-7 4.66 -7 5.32 -7 6 C-8.65 6.66 -10.3 7.32 -12 8 C-12 7.34 -12 6.68 -12 6 C-12.66 6 -13.32 6 -14 6 C-14 5.01 -14 4.02 -14 3 C-13.16855469 2.69255859 -13.16855469 2.69255859 -12.3203125 2.37890625 C-11.59585938 2.10949219 -10.87140625 1.84007812 -10.125 1.5625 C-9.40570313 1.29566406 -8.68640625 1.02882812 -7.9453125 0.75390625 C-3.38200935 -1.0146028 -3.38200935 -1.0146028 0 0 Z " fill="#99B6D1" transform="translate(105,202)"/>
<path d="M0 0 C4.54554279 1.54337034 6.52829122 5.09166465 9.125 8.875 C9.56714844 9.50019531 10.00929687 10.12539062 10.46484375 10.76953125 C12.55181419 13.75181832 14.50821389 16.6644333 16 20 C12.53876866 18.84625622 11.98850152 17.96327708 9.9375 15.0625 C8.36341071 12.85557073 6.92088796 10.92088796 5 9 C4.2822931 7.85166896 3.59663048 6.68292619 2.9375 5.5 C2.59589844 4.8915625 2.25429687 4.283125 1.90234375 3.65625 C1.2450728 2.4498306 0.61440262 1.22880523 0 0 Z " fill="#ADC4D9" transform="translate(162,108)"/>
<path d="M0 0 C4.99005032 0.46781722 9.15195521 2.88919744 13 6 C13.33 6.99 13.66 7.98 14 9 C3.375 6.29166667 3.375 6.29166667 0.6875 1.8125 C0.460625 1.214375 0.23375 0.61625 0 0 Z " fill="#CFDDE7" transform="translate(241,47)"/>
<path d="M0 0 C3.34292611 3.1019945 5.76244801 6.43575362 8.25 10.25 C8.95640625 11.32765625 9.6628125 12.4053125 10.390625 13.515625 C10.92171875 14.33546875 11.4528125 15.1553125 12 16 C11.34 16.66 10.68 17.32 10 18 C9.58105469 17.28070313 9.16210938 16.56140625 8.73046875 15.8203125 C6.48925578 12.16759069 3.96042782 8.75768427 1.42578125 5.3046875 C0 3 0 3 0 0 Z " fill="#CCDAE3" transform="translate(248,205)"/>
<path d="M0 0 C4.05204951 1.35068317 4.87548363 3.39577729 7.1875 6.9375 C7.90292969 8.01902344 8.61835938 9.10054687 9.35546875 10.21484375 C11 13 11 13 11 15 C6.94993501 13.64997834 5.86912713 11.00333229 3.8125 7.5 C3.44447266 6.89285156 3.07644531 6.28570312 2.69726562 5.66015625 C0 1.16638161 0 1.16638161 0 0 Z " fill="#CBD7DF" transform="translate(268,236)"/>
<path d="M0 0 C0.66 0.33 1.32 0.66 2 1 C-2.07242789 6.70139904 -6.89889207 9.65919915 -13 13 C-13.33 12.34 -13.66 11.68 -14 11 C-13.40832031 10.62488281 -12.81664062 10.24976563 -12.20703125 9.86328125 C-7.64018376 6.90563287 -3.6682206 4.02320969 0 0 Z " fill="#CED9E3" transform="translate(232,142)"/>
<path d="M0 0 C6.20988129 0.44356295 10.60540561 1.91532502 16 5 C15.67 5.66 15.34 6.32 15 7 C14.01 7 13.02 7 12 7 C12 6.34 12 5.68 12 5 C11.21753906 4.80664062 10.43507812 4.61328125 9.62890625 4.4140625 C8.61699219 4.15367188 7.60507813 3.89328125 6.5625 3.625 C5.55316406 3.36976562 4.54382813 3.11453125 3.50390625 2.8515625 C1 2 1 2 0 0 Z " fill="#CDDEE5" transform="translate(224,40)"/>
<path d="M0 0 C5.2452606 1.38845134 7.96402435 4.72578654 11 9 C12.375 11.9375 12.375 11.9375 13 14 C12.34 14 11.68 14 11 14 C9 11 9 11 9 8 C8.34 8 7.68 8 7 8 C7 7.34 7 6.68 7 6 C6.34 6 5.68 6 5 6 C5 5.34 5 4.68 5 4 C2.525 3.01 2.525 3.01 0 2 C0 1.34 0 0.68 0 0 Z " fill="#E9F5FC" transform="translate(35,36)"/>
<path d="M0 0 C1.1875 2.5625 1.1875 2.5625 2 5 C-1 4 -1 4 -3 2 C-3.94875 2.495 -4.8975 2.99 -5.875 3.5 C-9 5 -9 5 -11 5 C-11 4.34 -11 3.68 -11 3 C-9.73581754 2.30034557 -8.46334598 1.61565237 -7.1875 0.9375 C-6.47980469 0.55464844 -5.77210938 0.17179688 -5.04296875 -0.22265625 C-3 -1 -3 -1 0 0 Z " fill="#CED9E2" transform="translate(245,198)"/>
<path d="M0 0 C-4.96284034 2.37113483 -9.45949887 4.43174347 -15 5 C-12.86699672 2.63442627 -11.04050601 1.37032472 -8.0625 0.25 C-7.39347656 -0.01296875 -6.72445312 -0.2759375 -6.03515625 -0.546875 C-3.68352509 -1.07046274 -2.26382477 -0.74954377 0 0 Z " fill="#AAC0D4" transform="translate(86,208)"/>
<path d="M0 0 C0.33 0.99 0.66 1.98 1 3 C1.66 3 2.32 3 3 3 C3 2.34 3 1.68 3 1 C3.66 1 4.32 1 5 1 C4.34 2.65 3.68 4.3 3 6 C0.69 6 -1.62 6 -4 6 C-2.68 4.02 -1.36 2.04 0 0 Z " fill="#95B5CB" transform="translate(136,109)"/>
<path d="M0 0 C-0.625 1.9375 -0.625 1.9375 -2 4 C-5.0625 4.625 -5.0625 4.625 -8 5 C-8.33 5.66 -8.66 6.32 -9 7 C-9.33 6.01 -9.66 5.02 -10 4 C-3.375 0 -3.375 0 0 0 Z " fill="#95B4CD" transform="translate(163,261)"/>
<path d="M0 0 C0.66 0 1.32 0 2 0 C3.5078125 1.8984375 3.5078125 1.8984375 5.125 4.375 C5.66382813 5.18710938 6.20265625 5.99921875 6.7578125 6.8359375 C8 9 8 9 8 11 C7.01 10.67 6.02 10.34 5 10 C3.8125 6.9375 3.8125 6.9375 3 4 C2.34 4 1.68 4 1 4 C0.67 2.68 0.34 1.36 0 0 Z " fill="#CAD7E0" transform="translate(260,224)"/>
<path d="M0 0 C0.99 0.33 1.98 0.66 3 1 C2.01 2.98 1.02 4.96 0 7 C-0.99 6.67 -1.98 6.34 -3 6 C-1.125 1.125 -1.125 1.125 0 0 Z " fill="#97B8D0" transform="translate(85,180)"/>
<path d="M0 0 C0.66 0.33 1.32 0.66 2 1 C0.52307692 5.67692308 0.52307692 5.67692308 -2.125 7.3125 C-3.053125 7.6528125 -3.053125 7.6528125 -4 8 C-1.125 1.125 -1.125 1.125 0 0 Z " fill="#98B6CE" transform="translate(98,162)"/>
<path d="M0 0 C0.66 0 1.32 0 2 0 C0.68775452 3.93673644 -0.91910327 6.22719294 -4 9 C-2.25 2.25 -2.25 2.25 0 0 Z " fill="#A9C0D2" transform="translate(135,114)"/>
<path d="M0 0 C2.31 0 4.62 0 7 0 C6.2884375 0.680625 6.2884375 0.680625 5.5625 1.375 C3.90972192 2.93258204 3.90972192 2.93258204 3 5 C1.5 3.625 1.5 3.625 0 2 C0 1.34 0 0.68 0 0 Z " fill="#E1EBF2" transform="translate(103,34)"/>
<path d="M0 0 C0.66 0 1.32 0 2 0 C2.33 1.32 2.66 2.64 3 4 C0.69 4 -1.62 4 -4 4 C-3.67 3.34 -3.34 2.68 -3 2 C-2.01 2 -1.02 2 0 2 C0 1.34 0 0.68 0 0 Z " fill="#AFBECC" transform="translate(192,149)"/>
<path d="M0 0 C2.31 1.98 4.62 3.96 7 6 C6.67 6.66 6.34 7.32 6 8 C1.3125 4.38671875 1.3125 4.38671875 0 3 C0 2.01 0 1.02 0 0 Z " fill="#D0DDE6" transform="translate(256,56)"/>
</svg>
